<?xml version="1.0" encoding="utf-8"?>
<!-- Generator: Adobe Illustrator 24.2.1, SVG Export Plug-In . SVG Version: 6.00 Build 0)  -->
<svg version="1.1" id="Camada_1" xmlns="http://www.w3.org/2000/svg" xmlns:xlink="http://www.w3.org/1999/xlink" x="0px" y="0px"
	 viewBox="0 0 1080 1080" style="enable-background:new 0 0 1080 1080;" xml:space="preserve">
<style type="text/css">
	.st0{fill:#FDD858;}
	.st1{fill:#FFE178;}
	.st2{fill:#EFC840;}
	.st3{fill:#7B9A1F;}
	.st4{fill:#7A9322;}
	.st5{opacity:0.62;fill:#5C342B;}
	.st6{fill:#74473B;}
	.st7{fill:#F8CC2A;}
</style>
<g>
	<g>
		<path class="st0" d="M701.9,594.7c-4.8,3.6-9.1,8-12.6,13.4c-2.4,3.7-4.2,7.5-5.6,11.5c-0.4-0.3-6.3,0.8-6.5,0.7
			c-3.3,0-6.7,0.3-9.8,0.8c-24,4.4-42.3,25.2-42.6,50.5c0,4.4,0.5,8.6,1.5,12.7c-0.5,0-1.1-0.1-1.6-0.1
			c-28.6-0.3-52.1,22.6-52.4,51.3c-0.2,16.4,7.3,31.1,19.1,40.8c-12,9.4-19.8,23.9-20,40.3c-0.2,14,5.2,26.7,14.1,36.1
			c1.3,1,2.6,2,4,2.9c0.2,0.1,0.3,0.2,0.5,0.3l-0.4,0.7c2.1,1.8,4.4,3.5,6.8,4.9c7.7,4.6,16.6,7.3,26.2,7.4c0.6,0,1.1,0,1.6-0.1
			c-1.1,4-1.7,8.3-1.8,12.7c-0.1,11.5,3.5,22.2,9.8,30.9c-96.9,30.9-204.8,29.6-300.7-3.8c-50.2-17.5-100.3-46.9-120.1-94.3
			c-19.6-46.9-4.8-100.8,19.3-145.7c24.1-45,57.1-85.6,77-132.4c23.7-55.8,27.3-117.3,40.5-176.1c0.5-2.4,1.1-4.7,1.7-7.1
			c2.9-11.8,6.8-23.5,13.8-33.6c21.5-31.2,50.7-43.3,81.7-42.8c67,1,142.3,60.7,165.1,112.6C630.5,435,638.9,485,661,530
			C672.3,552.8,686.8,573.9,701.9,594.7z"/>
		<path class="st1" d="M514.5,383.2c24.2,24.7,19,70.6,47.5,90.2c3.4,2.4,7.6,4.2,11.6,3.1c3.5-1,6-4,8.1-7
			c17.4-25.5,18.9-61,3.6-87.9c-13-22.8-58.8-55.4-87.8-50.1C453.2,339.6,496.9,365.1,514.5,383.2z"/>
		<path class="st2" d="M301.6,858.4C301.6,858.4,301.5,858.4,301.6,858.4c-35.4-24-56-54.4-47.1-99.2c4.9-24.4,17.1-46.6,30.2-67.8
			c6.6-10.6,15.9-22.3,28.3-21.2c6.8,0.6,12.6,5.2,16.9,10.4c22,26.4,13.4,66.3,24.4,98.9c9.8,28.9,115.3,90.1,93.1,109.2
			c-7,6-17.1,6.8-26.3,7.2C372.1,898.2,342.7,886.4,301.6,858.4z"/>
		<path class="st3" d="M399.7,269.9c-17.4-7-36.5-8.5-55.3-9.4c-31.2-1.5-63.1-1.6-93,7.3c-50.8,15.2-90.4,54.8-123.6,96.1
			c12.2-6.6,27-4.8,40.8-3.1c37.3,4.7,74.9,7.2,112.6,7.5c30,0.3,60.9-1.1,88.4-13.2c20.6-9.1,45.1-25.6,59.1-43.4
			C443.2,293.5,416.5,276.6,399.7,269.9z"/>
		<path class="st4" d="M432.7,298.4c0.7,4.2-0.3,8.7-3.9,13.3c-14.1,17.8-38.6,34.3-59.1,43.4c-27.5,12.1-58.4,13.5-88.4,13.2
			c-37.6-0.3-75.2-2.8-112.6-7.5c-13.8-1.7-28.6-3.6-40.8,3.1c61.8-36.9,140.6-21.9,209.6-42.6C368.8,311.9,400.2,294.3,432.7,298.4
			z"/>
		<path class="st5" d="M365.2,157.6c-3.8,0.8-5.4,6.4-2.7,9.1c0.4,0.4,0.9,0.7,1.5,0.7c0.4,0,0.8-0.2,1.1-0.4c1.6-0.9,3-2,4.5-3.1
			c1.3-1,2.6-2.4,2.4-4.1c-0.2-1.7-2-2.8-3.7-2.7c-1.7,0.1-3.2,0.9-4.7,1.9L365.2,157.6z"/>
		<rect x="654.8" y="557.6" class="st0" width="29" height="29"/>
		<rect x="665.8" y="572.6" class="st0" width="29" height="29"/>
		<rect x="677.8" y="587.6" class="st0" width="29" height="29"/>
		<rect x="659.7" y="594.5" class="st0" width="29" height="29"/>
		<rect x="635.7" y="598.5" class="st0" width="29" height="29"/>
		<rect x="622.7" y="605.6" class="st0" width="29" height="29"/>
		<rect x="610.9" y="616.6" class="st0" width="29" height="29"/>
		<rect x="604.6" y="627.6" class="st0" width="29" height="29"/>
		<rect x="600.7" y="641.6" class="st0" width="29" height="29"/>
		<rect x="599.6" y="657.6" class="st0" width="29" height="29"/>
		<rect x="590.7" y="661.6" class="st0" width="29" height="29"/>
		<rect x="577.7" y="671.6" class="st0" width="29" height="29"/>
		<rect x="560.7" y="682.6" class="st0" width="29" height="29"/>
		<rect x="553.7" y="693.6" class="st0" width="29" height="29"/>
		<rect x="547.7" y="708.7" class="st0" width="29" height="29"/>
		<rect x="551.7" y="732.7" class="st0" width="29" height="29"/>
		<rect x="553.7" y="752.7" class="st0" width="29" height="29"/>
		<rect x="563.7" y="762.7" class="st0" width="29" height="29"/>
		<rect x="553.7" y="787.7" class="st0" width="29" height="29"/>
		<rect x="549.7" y="808.7" class="st0" width="29" height="29"/>
		<rect x="554.7" y="833.7" class="st0" width="29" height="29"/>
		<rect x="562.7" y="844.7" class="st0" width="29" height="29"/>
		<rect x="605.6" y="888.7" class="st0" width="29" height="29"/>
		<rect x="575.6" y="854.7" class="st0" width="29" height="29"/>
		<rect x="586.6" y="857.7" class="st0" width="29" height="29"/>
		<rect x="596.6" y="863.7" class="st0" width="29" height="29"/>
		<rect x="595.6" y="873.7" class="st0" width="29" height="29"/>
		<rect x="599.8" y="895.7" class="st0" width="29" height="29"/>
		<rect x="578.8" y="899.7" class="st0" width="29" height="29"/>
		<rect x="556.8" y="903.7" class="st0" width="29" height="29"/>
		<rect x="532.8" y="907.7" class="st0" width="29" height="29"/>
		<rect x="505.8" y="910.7" class="st0" width="29" height="29"/>
		<rect x="485.7" y="910.7" class="st0" width="29" height="29"/>
		<rect x="465.7" y="910.7" class="st0" width="29" height="29"/>
		<rect x="448.7" y="910.7" class="st0" width="29" height="29"/>
		<rect x="430.7" y="908.7" class="st0" width="29" height="29"/>
		<rect x="413.7" y="906.7" class="st0" width="29" height="29"/>
		<rect x="395.7" y="902.7" class="st0" width="29" height="29"/>
		<rect x="371.7" y="900.7" class="st0" width="29" height="29"/>
		<rect x="349.7" y="896.7" class="st0" width="29" height="29"/>
		<rect x="327.6" y="890.7" class="st0" width="29" height="29"/>
		<rect x="306.6" y="882.7" class="st0" width="29" height="29"/>
		<rect x="287.6" y="876.7" class="st0" width="29" height="29"/>
		<rect x="265.6" y="868.7" class="st0" width="29" height="29"/>
		<rect x="254.6" y="854.7" class="st0" width="29" height="29"/>
		<rect x="236.6" y="846.7" class="st0" width="29" height="29"/>
		<rect x="223.6" y="832.7" class="st0" width="29" height="29"/>
		<rect x="212.6" y="818.7" class="st0" width="29" height="29"/>
		<rect x="202.6" y="800.7" class="st0" width="29" height="29"/>
		<rect x="197.5" y="782.7" class="st0" width="29" height="29"/>
		<rect x="198.5" y="757.7" class="st0" width="29" height="29"/>
		<rect x="200.5" y="734.6" class="st0" width="29" height="29"/>
		<rect x="202.5" y="712.6" class="st0" width="29" height="29"/>
		<rect x="208.5" y="689.6" class="st0" width="29" height="29"/>
		<rect x="218.6" y="667.6" class="st0" width="29" height="29"/>
		<rect x="227.6" y="648.6" class="st0" width="29" height="29"/>
		<rect x="240.6" y="632.6" class="st0" width="29" height="29"/>
		<rect x="249.6" y="619.6" class="st0" width="29" height="29"/>
		<rect x="258.6" y="599.6" class="st0" width="29" height="29"/>
		<rect x="271.6" y="581.5" class="st0" width="29" height="29"/>
		<rect x="278.6" y="563.5" class="st0" width="29" height="29"/>
		<rect x="289.6" y="543.5" class="st0" width="29" height="29"/>
		<rect x="300.6" y="522.5" class="st0" width="29" height="29"/>
		<rect x="307.6" y="504.5" class="st0" width="29" height="29"/>
		<rect x="311.6" y="486.5" class="st0" width="29" height="29"/>
		<rect x="318.6" y="464.5" class="st0" width="29" height="29"/>
		<rect x="324.6" y="441.5" class="st0" width="29" height="29"/>
		<rect x="329.6" y="420.4" class="st0" width="29" height="29"/>
		<rect x="333.6" y="397.4" class="st0" width="29" height="29"/>
		<rect x="337.6" y="380.4" class="st0" width="29" height="29"/>
		<rect x="344.6" y="357.4" class="st0" width="29" height="29"/>
		<rect x="161.3" y="350.4" class="st4" width="16.1" height="16.1"/>
		<rect x="175.3" y="352.4" class="st4" width="16.1" height="16.1"/>
		<rect x="188.3" y="354.4" class="st4" width="16.1" height="16.1"/>
		<rect x="202.3" y="359.4" class="st4" width="16.1" height="16.1"/>
		<rect x="215.3" y="356.4" class="st4" width="16.1" height="16.1"/>
		<rect x="231.3" y="359.4" class="st4" width="16.1" height="16.1"/>
		<rect x="244.3" y="360.4" class="st4" width="16.1" height="16.1"/>
		<rect x="257.3" y="362.4" class="st4" width="16.1" height="16.1"/>
		<rect x="272.3" y="359.4" class="st4" width="16.1" height="16.1"/>
		<rect x="286.3" y="357.4" class="st4" width="16.1" height="16.1"/>
		<rect x="296.3" y="354.4" class="st4" width="16.1" height="16.1"/>
		<rect x="310.3" y="353.4" class="st4" width="16.1" height="16.1"/>
		<rect x="324.3" y="351.4" class="st4" width="16.1" height="16.1"/>
		<rect x="333.3" y="349.4" class="st4" width="16.1" height="16.1"/>
		<rect x="344.3" y="347.4" class="st4" width="16.1" height="16.1"/>
		<rect x="357.3" y="345.4" class="st4" width="16.1" height="16.1"/>
		<rect x="371.3" y="339.4" class="st4" width="16.1" height="16.1"/>
		<rect x="381.3" y="333.4" class="st4" width="16.1" height="16.1"/>
		<rect x="389.3" y="328.4" class="st4" width="16.1" height="16.1"/>
		<rect x="396.3" y="320.4" class="st4" width="16.1" height="16.1"/>
		<rect x="403.3" y="316.4" class="st4" width="16.1" height="16.1"/>
		<rect x="410.3" y="309.4" class="st4" width="16.1" height="16.1"/>
		<rect x="415.3" y="304.4" class="st4" width="16.1" height="16.1"/>
		<rect x="417.3" y="300.4" class="st4" width="16.1" height="16.1"/>
		<rect x="418.3" y="297.4" class="st4" width="16.1" height="16.1"/>
		<rect x="411.3" y="297.4" class="st4" width="16.1" height="16.1"/>
		<rect x="403.3" y="297.4" class="st4" width="16.1" height="16.1"/>
		<rect x="395.3" y="298.4" class="st4" width="16.1" height="16.1"/>
		<rect x="386.3" y="300.4" class="st4" width="16.1" height="16.1"/>
		<rect x="376.3" y="302.4" class="st4" width="16.1" height="16.1"/>
		<rect x="364.3" y="305.4" class="st4" width="16.1" height="16.1"/>
		<rect x="354.3" y="308.4" class="st4" width="16.1" height="16.1"/>
		<rect x="345.3" y="312.4" class="st4" width="16.1" height="16.1"/>
		<rect x="335.3" y="316.4" class="st4" width="16.1" height="16.1"/>
		<rect x="322.3" y="319.4" class="st4" width="16.1" height="16.1"/>
		<rect x="308.3" y="321.4" class="st4" width="16.1" height="16.1"/>
		<rect x="296.3" y="324.4" class="st4" width="16.1" height="16.1"/>
		<rect x="284.3" y="327.4" class="st4" width="16.1" height="16.1"/>
		<rect x="272.3" y="329.4" class="st4" width="16.1" height="16.1"/>
		<rect x="259.3" y="331.4" class="st4" width="16.1" height="16.1"/>
		<rect x="249.3" y="332.4" class="st4" width="16.1" height="16.1"/>
		<rect x="236.3" y="333.4" class="st4" width="16.1" height="16.1"/>
		<rect x="224.3" y="334.4" class="st4" width="16.1" height="16.1"/>
		<rect x="216.3" y="335.4" class="st4" width="16.1" height="16.1"/>
		<rect x="205.3" y="337.4" class="st4" width="16.1" height="16.1"/>
		<rect x="193.3" y="338.4" class="st4" width="16.1" height="16.1"/>
		<rect x="182.3" y="339.4" class="st4" width="16.1" height="16.1"/>
		<rect x="171.3" y="341.4" class="st4" width="16.1" height="16.1"/>
		<rect x="163.3" y="344.4" class="st4" width="16.1" height="16.1"/>
		<rect x="154.3" y="347.4" class="st4" width="16.1" height="16.1"/>
		<rect x="148.6" y="348.8" class="st4" width="16.1" height="16.1"/>
		<rect x="139.7" y="353.1" class="st4" width="16.1" height="16.1"/>
		<rect x="129.7" y="357.5" class="st4" width="16.1" height="16.1"/>
		<rect x="431.7" y="262.3" class="st0" width="29" height="29"/>
		<rect x="426.7" y="291.4" class="st6" width="29" height="29"/>
		<rect x="418.7" y="247.3" class="st6" width="29" height="29"/>
		<rect x="406.7" y="224.3" class="st6" width="29" height="29"/>
		<rect x="410.7" y="231.3" class="st6" width="29" height="29"/>
		<rect x="400.7" y="212.3" class="st6" width="29" height="29"/>
		<rect x="380.7" y="177.3" class="st6" width="29" height="29"/>
		<rect x="395.7" y="201.3" class="st6" width="29" height="29"/>
		<rect x="385.7" y="186.3" class="st6" width="29" height="29"/>
		<rect x="392.7" y="192.3" class="st6" width="29" height="29"/>
		<rect x="370.7" y="171.3" class="st6" width="29" height="29"/>
		<rect x="346.7" y="140.3" class="st6" width="29" height="29"/>
		<rect x="355.6" y="152.3" class="st6" width="29" height="29"/>
		<rect x="364.6" y="162.3" class="st6" width="29" height="29"/>
		<rect x="457.7" y="265.3" class="st0" width="29" height="29"/>
		<rect x="424.7" y="302.4" class="st7" width="29" height="29"/>
		<rect x="449.7" y="297.4" class="st7" width="29" height="29"/>
		<rect x="479.7" y="277.3" class="st0" width="29" height="29"/>
		<rect x="459.7" y="285.4" class="st7" width="29" height="29"/>
		<rect x="446.7" y="278.3" class="st7" width="29" height="29"/>
		<rect x="428.7" y="288.3" class="st7" width="29" height="29"/>
		<rect x="422.7" y="286.3" class="st7" width="29.3" height="28.7"/>
		<rect x="495.7" y="288.3" class="st0" width="29" height="29"/>
		<rect x="520.7" y="299.3" class="st0" width="29" height="29"/>
		<rect x="495.7" y="325.4" class="st1" width="29" height="29"/>
		<rect x="484.7" y="329.4" class="st1" width="29" height="29"/>
		<rect x="473.7" y="332.4" class="st1" width="29" height="29"/>
		<rect x="482.7" y="340.4" class="st1" width="29" height="29"/>
		<rect x="493.7" y="351.4" class="st1" width="29" height="29"/>
		<rect x="499.7" y="361.4" class="st1" width="29" height="29"/>
		<rect x="512.7" y="373.4" class="st1" width="29" height="29"/>
		<rect x="523.7" y="387.4" class="st1" width="29" height="29"/>
		<rect x="528.7" y="409.4" class="st1" width="29" height="29"/>
		<rect x="534.7" y="424.4" class="st1" width="29" height="29"/>
		<rect x="543.8" y="435.4" class="st1" width="29" height="29"/>
		<rect x="549.8" y="445.4" class="st1" width="29" height="29"/>
		<rect x="560.8" y="451.4" class="st1" width="29" height="29"/>
		<rect x="566.8" y="438.4" class="st1" width="29" height="29"/>
		<rect x="570.8" y="423.4" class="st1" width="29" height="29"/>
		<rect x="599.8" y="401.4" class="st0" width="29" height="29"/>
		<rect x="574.8" y="413.4" class="st1" width="29" height="29"/>
		<rect x="596.8" y="383.4" class="st0" width="29" height="29"/>
		<rect x="576.8" y="400.4" class="st1" width="29" height="29"/>
		<rect x="578.8" y="386.4" class="st1" width="29" height="29"/>
		<rect x="537.7" y="314.4" class="st0" width="29" height="29"/>
		<rect x="561.8" y="329.4" class="st0" width="29" height="29"/>
		<rect x="572.8" y="344.4" class="st0" width="29" height="29"/>
		<rect x="581.8" y="362.4" class="st0" width="29" height="29"/>
		<rect x="605.8" y="422.4" class="st0" width="29" height="29"/>
		<rect x="610.8" y="434.4" class="st0" width="29" height="29"/>
		<rect x="617.8" y="456.4" class="st0" width="29" height="29"/>
		<rect x="623.8" y="469.4" class="st0" width="29" height="29"/>
		<rect x="630.8" y="487.5" class="st0" width="29" height="29"/>
		<rect x="633.8" y="504.5" class="st0" width="29" height="29"/>
		<rect x="641.8" y="519.5" class="st0" width="29" height="29"/>
		<rect x="648.8" y="533.5" class="st0" width="29" height="29"/>
		<rect x="295.4" y="663.2" class="st2" width="18" height="18"/>
		<rect x="286.4" y="670.2" class="st2" width="18" height="18"/>
		<rect x="276.4" y="682.2" class="st2" width="18" height="18"/>
		<rect x="271.4" y="691.2" class="st2" width="18" height="18"/>
		<rect x="266.4" y="708.2" class="st2" width="18" height="18"/>
		<rect x="258.4" y="719.2" class="st2" width="18" height="18"/>
		<rect x="255.4" y="732.2" class="st2" width="18" height="18"/>
		<rect x="247.4" y="742.2" class="st2" width="18" height="18"/>
		<rect x="243.4" y="754.2" class="st2" width="18" height="18"/>
		<rect x="247.4" y="771.2" class="st2" width="18" height="18"/>
		<rect x="250.4" y="781.2" class="st2" width="18" height="18"/>
		<rect x="253.4" y="797.2" class="st2" width="18" height="18"/>
		<rect x="259.4" y="809.2" class="st2" width="18" height="18"/>
		<rect x="266.4" y="819.2" class="st2" width="18" height="18"/>
		<rect x="274.4" y="828.2" class="st2" width="18" height="18"/>
		<rect x="285.4" y="838.2" class="st2" width="18" height="18"/>
		<rect x="294.4" y="844.2" class="st2" width="18" height="18"/>
		<rect x="306.4" y="851.2" class="st2" width="18" height="18"/>
		<rect x="318.4" y="859.2" class="st2" width="18" height="18"/>
		<rect x="332.4" y="866.2" class="st2" width="18" height="18"/>
		<rect x="343.4" y="872.2" class="st2" width="18" height="18"/>
		<rect x="358.4" y="877.2" class="st2" width="18" height="18"/>
		<rect x="373.4" y="879.2" class="st2" width="18" height="18"/>
		<rect x="388.4" y="881.2" class="st2" width="18" height="18"/>
		<rect x="405.4" y="880.2" class="st2" width="18" height="18"/>
		<rect x="416.4" y="879.2" class="st2" width="18" height="18"/>
		<rect x="427.4" y="877.2" class="st2" width="18" height="18"/>
		<rect x="433.4" y="874.2" class="st2" width="18" height="18"/>
		<rect x="431.4" y="868.2" class="st2" width="18" height="18"/>
		<rect x="426.4" y="860.2" class="st2" width="18" height="18"/>
		<rect x="419.4" y="851.2" class="st2" width="18" height="18"/>
		<rect x="408.4" y="841.2" class="st2" width="18" height="18"/>
		<rect x="399.4" y="830.2" class="st2" width="18" height="18"/>
		<rect x="388.4" y="821.2" class="st2" width="18" height="18"/>
		<rect x="374.4" y="809.2" class="st2" width="18" height="18"/>
		<rect x="360.4" y="796.2" class="st2" width="18" height="18"/>
		<rect x="349.4" y="786.2" class="st2" width="18" height="18"/>
		<rect x="346.4" y="770.2" class="st2" width="18" height="18"/>
		<rect x="341.4" y="756.2" class="st2" width="18" height="18"/>
		<rect x="333.4" y="733.2" class="st2" width="18" height="18"/>
		<rect x="336.4" y="717.2" class="st2" width="18" height="18"/>
		<rect x="331.4" y="701.2" class="st2" width="18" height="18"/>
		<rect x="325.4" y="688.2" class="st2" width="18" height="18"/>
		<rect x="320.4" y="674.2" class="st2" width="18" height="18"/>
		<rect x="308.4" y="667.2" class="st2" width="18" height="18"/>
		<rect x="425.7" y="268.3" class="st6" width="29" height="29"/>
		<rect x="337.4" y="739.2" class="st2" width="20" height="20"/>
		<rect x="569.8" y="370.4" class="st1" width="29" height="29"/>
		<rect x="545.8" y="346.4" class="st1" width="29" height="29"/>
		<rect x="513.8" y="330.4" class="st1" width="29" height="29"/>
		<rect x="532.8" y="338.4" class="st1" width="29" height="29"/>
		<rect x="557.8" y="357.4" class="st1" width="29" height="29"/>
		<rect x="118.6" y="349.2" class="st3" width="16.1" height="16.1"/>
		<rect x="126.6" y="339.2" class="st3" width="16.1" height="16.1"/>
		<rect x="137.6" y="331.2" class="st3" width="16.1" height="16.1"/>
		<rect x="143.6" y="323.2" class="st3" width="16.1" height="16.1"/>
		<rect x="155.6" y="318.2" class="st3" width="16.1" height="16.1"/>
		<rect x="164.6" y="307.2" class="st3" width="16.1" height="16.1"/>
		<rect x="178.6" y="298.2" class="st3" width="16.1" height="16.1"/>
		<rect x="186.6" y="290.2" class="st3" width="16.1" height="16.1"/>
		<rect x="197.6" y="282.2" class="st3" width="16.1" height="16.1"/>
		<rect x="210.6" y="275.2" class="st3" width="16.1" height="16.1"/>
		<rect x="223.6" y="267.2" class="st3" width="16.1" height="16.1"/>
		<rect x="237.6" y="262.2" class="st3" width="16.1" height="16.1"/>
		<rect x="248.6" y="258.2" class="st3" width="16.1" height="16.1"/>
		<rect x="260.6" y="256.2" class="st3" width="16.1" height="16.1"/>
		<rect x="274.6" y="254.2" class="st3" width="16.1" height="16.1"/>
		<rect x="286.6" y="251.2" class="st3" width="16.1" height="16.1"/>
		<rect x="301.6" y="254.2" class="st3" width="16.1" height="16.1"/>
		<rect x="316.6" y="256.2" class="st3" width="16.1" height="16.1"/>
		<rect x="332.6" y="257.2" class="st3" width="16.1" height="16.1"/>
		<rect x="347.6" y="259.2" class="st3" width="16.1" height="16.1"/>
		<rect x="359.6" y="260.2" class="st3" width="16.1" height="16.1"/>
		<rect x="370.6" y="261.2" class="st3" width="16.1" height="16.1"/>
		<rect x="382.6" y="264.2" class="st3" width="16.1" height="16.1"/>
		<rect x="391.6" y="268.2" class="st3" width="16.1" height="16.1"/>
		<rect x="400.6" y="271.2" class="st3" width="16.1" height="16.1"/>
		<rect x="407.6" y="277.2" class="st3" width="16.1" height="16.1"/>
		<rect x="413.6" y="280.2" class="st3" width="16.1" height="16.1"/>
	</g>
	<g>
		<path class="st4" d="M688.4,713.2c-2.6,0-5.1-0.5-7.4-1.4c-2.4-0.9-4.4-2.3-6.1-3.9c-1.8-1.6-3.2-3.6-4.2-5.8s-1.6-4.7-1.7-7.3
			c-0.2-1.4-0.2-2.9,0-4.5c0.1-2.6,0.7-5,1.7-7.3s2.4-4.2,4.2-5.9c1.7-1.6,3.8-2.9,6.1-3.9c2.3-0.9,4.8-1.4,7.4-1.4h28.2v7.8h-28.2
			c-3.1,0-5.8,1-8,3.1c-2.3,2.1-3.5,4.7-3.7,7.8c-0.2,1.3-0.2,2.6,0,3.9c0.2,3.1,1.4,5.7,3.7,7.8c2.3,2.1,4.9,3.2,8,3.2h11.1h0.2
			c2.6,0,5.1,0.5,7.4,1.4c2.3,1,4.4,2.3,6.1,4c1.7,1.7,3.2,3.7,4.2,5.9s1.6,4.7,1.7,7.3v4.1v0.2v0.3c0,2.7-0.5,5.2-1.6,7.5
			c-1,2.3-2.5,4.3-4.3,6.1c-1.8,1.8-3.9,3.1-6.2,4.1c-2.4,1-4.9,1.5-7.6,1.5h-29v-7.8h29c2.9,0,5.4-0.9,7.7-2.8
			c2.2-1.8,3.5-4.2,4-7.1c0-0.3,0-0.6,0.1-1c0-0.3,0.1-0.7,0.1-1v-3.2c-0.1-3.2-1.3-5.9-3.6-8.3c-2.3-2.3-5.1-3.4-8.3-3.4H688.4z"/>
		<path class="st4" d="M768.5,670.7c5.4,0,10.5,1,15.3,3.1c4.8,2.1,9,4.9,12.5,8.4c3.5,3.6,6.3,7.7,8.4,12.5c2,4.8,3.1,9.9,3.1,15.3
			v37.5h-8v-13.9c-3.5,4.8-8,8.6-13.4,11.4c-5.5,2.8-11.4,4.2-17.9,4.2c-5.4,0-10.5-1-15.2-3.1c-4.8-2-8.9-4.8-12.4-8.4
			c-3.6-3.5-6.4-7.7-8.4-12.5c-2.1-4.7-3.1-9.8-3.1-15.2s1-10.5,3.1-15.3c2-4.8,4.8-9,8.4-12.5c3.5-3.5,7.7-6.3,12.4-8.4
			C758.1,671.7,763.1,670.7,768.5,670.7z M768.5,678.7c-4.3,0-8.4,0.8-12.2,2.5c-3.8,1.7-7.1,3.9-10,6.7c-2.9,2.8-5.1,6.1-6.8,10
			c-1.7,3.8-2.5,7.9-2.5,12.2c0,4.3,0.8,8.4,2.5,12.2c1.6,3.8,3.9,7.1,6.8,10c2.8,2.8,6.2,5.1,10,6.8c3.8,1.7,7.8,2.5,12.2,2.5
			c4.3,0,8.4-0.8,12.2-2.5c3.8-1.7,7.2-3.9,10-6.8c2.8-2.8,5-6.2,6.7-10c1.7-3.8,2.5-7.8,2.5-12.2c0-4.3-0.8-8.4-2.5-12.2
			s-3.9-7.2-6.7-10c-2.8-2.8-6.1-5-10-6.7C776.9,679.5,772.8,678.7,768.5,678.7z"/>
		<path class="st4" d="M820.9,651.7c0-2.7,0.5-5.2,1.6-7.6c1.1-2.3,2.4-4.4,4.2-6.2c1.7-1.8,3.8-3.2,6.2-4.2c2.4-1,4.9-1.5,7.6-1.5
			s5.3,0.5,7.7,1.5c2.4,1,4.5,2.4,6.2,4.2c1.7,1.8,3.2,3.9,4.2,6.2c1,2.4,1.6,4.9,1.6,7.6h-8c0-3.2-1.2-5.9-3.5-8.3
			c-2.3-2.3-5.1-3.5-8.3-3.5c-3.2,0-6,1.2-8.3,3.5c-2.3,2.3-3.5,5.1-3.5,8.3v46.7H857v7.9h-28.2v41.4h-7.9v-41.4v-7.9V651.7z"/>
		<path class="st4" d="M907.1,749.6c-5.4,0-10.5-1-15.3-3.1c-4.8-2-9-4.8-12.5-8.4c-3.6-3.5-6.4-7.7-8.4-12.4
			c-2.1-4.8-3.1-9.8-3.1-15.2c0-5.4,1-10.5,3.1-15.3c2-4.8,4.8-9,8.4-12.5c3.5-3.5,7.7-6.3,12.5-8.4c4.8-2,9.9-3.1,15.3-3.1
			c5.4,0,10.5,1,15.2,3.1c4.7,2.1,8.9,4.9,12.5,8.4c3.5,3.6,6.3,7.7,8.4,12.5c2,4.8,3.1,9.9,3.1,15.3c0,0.7,0,1.4,0,2
			s-0.1,1.3-0.1,1.9h-1.8h-68.4c0.5,3.9,1.6,7.5,3.5,10.8c1.8,3.3,4.1,6.2,6.8,8.7c2.8,2.5,5.9,4.5,9.5,5.8
			c3.6,1.4,7.4,2.1,11.4,2.1c2.9,0,5.6-0.5,8.3-1.7c2.6-1.1,4.9-2.6,6.9-4.7l5.5,5.6c-2.6,2.6-5.7,4.7-9.2,6.2
			C915.1,748.8,911.2,749.6,907.1,749.6z M938.2,706.6c-0.5-3.9-1.7-7.5-3.5-10.8s-4.1-6.2-6.8-8.7c-2.8-2.5-5.9-4.4-9.5-5.9
			c-3.6-1.4-7.3-2.1-11.3-2.1c-4,0-7.8,0.7-11.4,2.1c-3.6,1.4-6.8,3.4-9.5,5.9c-2.8,2.5-5,5.4-6.8,8.7c-1.8,3.3-3,6.9-3.5,10.8
			H938.2z"/>
		<path class="st4" d="M708.4,821c5.4,0,10.5,1,15.3,3.1c4.8,2.1,9,4.9,12.5,8.4c3.5,3.6,6.3,7.7,8.4,12.5c2,4.8,3.1,9.9,3.1,15.3
			c0,5.4-1,10.5-3.1,15.2c-2.1,4.8-4.9,8.9-8.4,12.4c-3.6,3.6-7.7,6.4-12.5,8.4c-4.8,2-9.9,3.1-15.3,3.1c-5.4,0-10.5-1-15.2-3.1
			c-4.8-2-8.9-4.8-12.5-8.4c-3.6-3.5-6.4-7.7-8.4-12.4c-2.1-4.7-3.1-9.8-3.1-15.2v-75h7.8v51.4c3.6-4.8,8.1-8.6,13.6-11.5
			C696.1,822.4,702,821,708.4,821z M708.4,829c-4.3,0-8.4,0.8-12.1,2.5c-3.8,1.6-7.1,3.9-10,6.7c-2.8,2.8-5.1,6.1-6.8,10
			c-1.6,3.9-2.5,7.9-2.5,12.2c0,4.3,0.8,8.3,2.5,12.1c1.7,3.8,3.9,7.1,6.8,10c2.9,2.8,6.2,5.1,10,6.8c3.8,1.6,7.8,2.5,12.1,2.5
			c4.3,0,8.4-0.8,12.2-2.5c3.8-1.7,7.2-3.9,10-6.8c2.8-2.9,5-6.2,6.7-10c1.7-3.8,2.5-7.8,2.5-12.1c0-4.3-0.8-8.4-2.5-12.2
			c-1.6-3.8-3.9-7.2-6.7-10c-2.8-2.8-6.1-5-10-6.7C716.8,829.8,712.7,829,708.4,829z"/>
		<path class="st4" d="M760,785.2h7.8v12.8H760V785.2z M760,822.7h7.8v75H760V822.7z"/>
		<path class="st4" d="M782.3,803.3h7.8V823h28.3v7.8h-28.3v48.4c0,3.2,1.1,6,3.4,8.3c2.3,2.3,5.1,3.5,8.4,3.5
			c3.2,0,5.9-1.1,8.3-3.5c2.3-2.3,3.5-5,3.5-8.3h7.8c0,2.7-0.5,5.3-1.5,7.7c-1,2.4-2.4,4.5-4.2,6.2c-1.8,1.8-3.9,3.2-6.2,4.2
			c-2.4,1-4.9,1.6-7.6,1.6s-5.3-0.5-7.7-1.6c-2.4-1.1-4.5-2.4-6.2-4.2c-1.8-1.7-3.2-3.8-4.2-6.2s-1.6-4.9-1.6-7.7V803.3z"/>
		<path class="st4" d="M868.1,899.6c-5.4,0-10.5-1-15.3-3.1c-4.8-2-9-4.8-12.5-8.4c-3.6-3.5-6.4-7.7-8.4-12.4
			c-2.1-4.8-3.1-9.8-3.1-15.2c0-5.4,1-10.5,3.1-15.3c2-4.8,4.8-9,8.4-12.5c3.5-3.5,7.7-6.3,12.5-8.4c4.8-2,9.9-3.1,15.3-3.1
			c5.4,0,10.5,1,15.2,3.1c4.7,2.1,8.9,4.9,12.5,8.4c3.5,3.6,6.3,7.7,8.4,12.5c2,4.8,3.1,9.9,3.1,15.3c0,0.7,0,1.4,0,2
			s-0.1,1.3-0.1,1.9h-1.8h-68.4c0.5,3.9,1.6,7.5,3.5,10.8c1.8,3.3,4.1,6.2,6.8,8.7c2.8,2.5,5.9,4.5,9.5,5.8
			c3.6,1.4,7.4,2.1,11.4,2.1c2.9,0,5.6-0.5,8.3-1.7c2.6-1.1,4.9-2.6,6.9-4.7l5.5,5.6c-2.6,2.6-5.7,4.7-9.2,6.2
			C876.1,898.8,872.2,899.6,868.1,899.6z M899.2,856.6c-0.5-3.9-1.7-7.5-3.5-10.8s-4.1-6.2-6.8-8.7c-2.8-2.5-5.9-4.4-9.5-5.9
			c-3.6-1.4-7.3-2.1-11.3-2.1c-4,0-7.8,0.7-11.4,2.1c-3.6,1.4-6.8,3.4-9.5,5.9c-2.8,2.5-5,5.4-6.8,8.7c-1.8,3.3-3,6.9-3.5,10.8
			H899.2z"/>
		<path class="st4" d="M939.2,863.2c-2.6,0-5.1-0.5-7.4-1.4c-2.4-0.9-4.4-2.3-6.2-3.9c-1.8-1.6-3.2-3.6-4.2-5.8s-1.6-4.7-1.7-7.3
			c-0.2-1.4-0.2-2.9,0-4.5c0.1-2.6,0.7-5,1.7-7.3s2.4-4.2,4.2-5.9c1.7-1.6,3.8-2.9,6.2-3.9c2.3-0.9,4.8-1.4,7.4-1.4h28.2v7.8h-28.2
			c-3.1,0-5.8,1-8,3.1c-2.3,2.1-3.5,4.7-3.7,7.8c-0.2,1.3-0.2,2.6,0,3.9c0.2,3.1,1.4,5.7,3.7,7.8c2.3,2.1,4.9,3.2,8,3.2h11.1h0.2
			c2.6,0,5.1,0.5,7.4,1.4c2.3,1,4.4,2.3,6.2,4c1.7,1.7,3.1,3.7,4.2,5.9c1.1,2.3,1.6,4.7,1.7,7.3v4.1v0.2v0.3c0,2.7-0.5,5.2-1.6,7.5
			c-1,2.3-2.5,4.3-4.3,6.1c-1.8,1.8-3.9,3.1-6.2,4.1c-2.4,1-4.9,1.5-7.6,1.5h-29v-7.8h29c2.9,0,5.4-0.9,7.7-2.8
			c2.2-1.8,3.5-4.2,4-7.1c0-0.3,0-0.6,0.1-1c0-0.3,0.1-0.7,0.1-1v-3.2c-0.1-3.2-1.3-5.9-3.6-8.3c-2.3-2.3-5.1-3.4-8.3-3.4H939.2z"/>
	</g>
</g>
</svg>
